<?xml version="1.0" encoding="UTF-8" standalone="no"?>
<svg
   xmlns:dc="http://purl.org/dc/elements/1.1/"
   xmlns:cc="http://creativecommons.org/ns#"
   xmlns:rdf="http://www.w3.org/1999/02/22-rdf-syntax-ns#"
   xmlns:svg="http://www.w3.org/2000/svg"
   xmlns="http://www.w3.org/2000/svg"
   xmlns:sodipodi="http://sodipodi.sourceforge.net/DTD/sodipodi-0.dtd"
   xmlns:inkscape="http://www.inkscape.org/namespaces/inkscape"
   height="512pt"
   viewBox="0 0 512 512"
   width="512pt"
   version="1.1"
   id="svg6"
   sodipodi:docname="align-middle.svg"
   inkscape:version="0.92.1 r15371">
  <metadata
     id="metadata12">
    <rdf:RDF>
      <cc:Work
         rdf:about="">
        <dc:format>image/svg+xml</dc:format>
        <dc:type
           rdf:resource="http://purl.org/dc/dcmitype/StillImage" />
        <dc:title></dc:title>
      </cc:Work>
    </rdf:RDF>
  </metadata>
  <defs
     id="defs10" />
  <sodipodi:namedview
     pagecolor="#ffffff"
     bordercolor="#666666"
     borderopacity="1"
     objecttolerance="10"
     gridtolerance="10"
     guidetolerance="10"
     inkscape:pageopacity="0"
     inkscape:pageshadow="2"
     inkscape:window-width="1920"
     inkscape:window-height="1016"
     id="namedview8"
     showgrid="false"
     inkscape:zoom="0.34570313"
     inkscape:cx="352.90395"
     inkscape:cy="329.76271"
     inkscape:window-x="1920"
     inkscape:window-y="27"
     inkscape:window-maximized="1"
     inkscape:current-layer="svg6" />
  <path
     d="m448 512h-384c-35.285156 0-64-28.714844-64-64v-384c0-35.285156 28.714844-64 64-64h384c35.285156 0 64 28.714844 64 64v384c0 35.285156-28.714844 64-64 64zm-384-469.332031c-11.753906 0-21.332031 9.578125-21.332031 21.332031v384c0 11.753906 9.578125 21.332031 21.332031 21.332031h384c11.753906 0 21.332031-9.578125 21.332031-21.332031v-384c0-11.753906-9.578125-21.332031-21.332031-21.332031zm0 0"
     fill="#607d8b"
     id="path2" />
  <path
     d="M 389.33203,185.83203 H 122.66797 c -20.58985,0 -37.335939,16.74609 -37.335939,37.33594 v 74.66406 c 0,20.58984 16.746089,37.33594 37.335939,37.33594 h 266.66406 c 20.58984,0 37.33594,-16.7461 37.33594,-37.33594 v -74.66406 c 0,-20.58985 -16.7461,-37.33594 -37.33594,-37.33594 z m 0,0"
     id="path4"
     inkscape:connector-curvature="0"
     style="fill:#2196f3" />
</svg>
