<svg height="512pt" viewBox="0 0 512 512" width="512pt" xmlns="http://www.w3.org/2000/svg"><g fill="#607d8b"><path d="m458.667969 512h-405.335938c-29.394531 0-53.332031-23.914062-53.332031-53.332031v-405.335938c0-29.417969 23.9375-53.332031 53.332031-53.332031h405.335938c29.394531 0 53.332031 23.914062 53.332031 53.332031v405.335938c0 29.417969-23.9375 53.332031-53.332031 53.332031zm-405.335938-469.332031c-5.886719 0-10.664062 4.796875-10.664062 10.664062v405.335938c0 5.867187 4.777343 10.664062 10.664062 10.664062h405.335938c5.886719 0 10.664062-4.796875 10.664062-10.664062v-405.335938c0-5.867187-4.777343-10.664062-10.664062-10.664062zm0 0"/><path d="m490.667969 277.332031h-469.335938c-11.773437 0-21.332031-9.535156-21.332031-21.332031s9.558594-21.332031 21.332031-21.332031h469.335938c11.773437 0 21.332031 9.535156 21.332031 21.332031s-9.558594 21.332031-21.332031 21.332031zm0 0"/><path d="m256 512c-11.777344 0-21.332031-9.535156-21.332031-21.332031v-469.335938c0-11.796875 9.554687-21.332031 21.332031-21.332031s21.332031 9.535156 21.332031 21.332031v469.335938c0 11.796875-9.554687 21.332031-21.332031 21.332031zm0 0"/></g></svg>