<?xml version="1.0" encoding="UTF-8" standalone="no"?>
<svg
   xmlns:dc="http://purl.org/dc/elements/1.1/"
   xmlns:cc="http://creativecommons.org/ns#"
   xmlns:rdf="http://www.w3.org/1999/02/22-rdf-syntax-ns#"
   xmlns:svg="http://www.w3.org/2000/svg"
   xmlns="http://www.w3.org/2000/svg"
   xmlns:sodipodi="http://sodipodi.sourceforge.net/DTD/sodipodi-0.dtd"
   xmlns:inkscape="http://www.inkscape.org/namespaces/inkscape"
   height="512pt"
   viewBox="0 -21 512 512"
   width="512pt"
   version="1.1"
   id="svg14"
   sodipodi:docname="crop.svg"
   inkscape:version="0.92.1 r15371">
  <metadata
     id="metadata20">
    <rdf:RDF>
      <cc:Work
         rdf:about="">
        <dc:format>image/svg+xml</dc:format>
        <dc:type
           rdf:resource="http://purl.org/dc/dcmitype/StillImage" />
        <dc:title />
      </cc:Work>
    </rdf:RDF>
  </metadata>
  <defs
     id="defs18" />
  <sodipodi:namedview
     pagecolor="#ffffff"
     bordercolor="#666666"
     borderopacity="1"
     objecttolerance="10"
     gridtolerance="10"
     guidetolerance="10"
     inkscape:pageopacity="0"
     inkscape:pageshadow="2"
     inkscape:window-width="1920"
     inkscape:window-height="1016"
     id="namedview16"
     showgrid="false"
     inkscape:zoom="0.34570313"
     inkscape:cx="-1145.2074"
     inkscape:cy="185.23386"
     inkscape:window-x="1920"
     inkscape:window-y="27"
     inkscape:window-maximized="1"
     inkscape:current-layer="svg14" />
  <g
     id="g10"
     fill="#607d8b">
    <path
       d="M 361.61877,403.16797 H 31.628512 c -13.034052,0 -23.569191,-9.5586 -23.569191,-21.33594 C 8.059321,370.05859 18.59446,360.5 31.628512,360.5 H 361.61877 c 13.03405,0 23.56919,9.55859 23.56919,21.33203 0,11.77734 -10.53514,21.33594 -23.56919,21.33594 z m 0,0"
       id="path2"
       inkscape:connector-curvature="0"
       style="stroke-width:1.05112946" />
    <path
       d="M 360.1442,102.83203 H 28.255623 c -13.109032,0 -23.704777,-9.55469 -23.704777,-21.33203 0,-11.77734 10.595745,-21.33203 23.704777,-21.33203 H 360.1442 c 13.10903,0 23.70478,9.55469 23.70478,21.33203 0,11.77734 -10.59575,21.33203 -23.70478,21.33203 z m 0,0"
       id="path6"
       inkscape:connector-curvature="0"
       style="stroke-width:1.05414855" />
    <path
       style="fill:#42a5f5;fill-opacity:1;stroke-width:1.14241123"
       d="M 447.09168,382.16449 V 83.496512 c 0,-11.79687 12.46986,-21.33203 27.84051,-21.33203 15.37064,0 27.8405,9.53516 27.8405,21.33203 V 382.16449 c 0,11.79687 -12.46986,21.33203 -27.8405,21.33203 -15.37065,0 -27.84051,-9.53516 -27.84051,-21.33203 z m 0,0"
       id="path6-3"
       inkscape:connector-curvature="0" />
  </g>
  <path
     d="m 382.4403,220.03819 -55.3682,-68.06284 c -2.24485,-2.74567 -5.14143,-4.19138 -8.08437,-4.19138 -1.6134,0 -3.20941,0.441 -4.7446,1.29999 -4.3188,2.51176 -7.11981,8.16799 -7.11981,14.40713 v 47.1213 H 22.377565 c -8.747683,0 -15.818241,9.38362 -15.818241,20.94537 0,11.55791 7.070558,20.94152 15.818241,20.94152 H 307.12332 v 47.12131 c 0,6.23913 2.80101,11.89537 7.11981,14.40712 4.31881,2.47341 9.36465,1.36134 12.82897,-2.88756 l 55.3682,-68.06666 c 2.40417,-2.97193 3.78005,-7.1403 3.78005,-11.51573 0,-4.37928 -1.37588,-8.52464 -3.78005,-11.51957 z m 0,0"
     id="path12"
     inkscape:connector-curvature="0"
     style="fill:#42a5f5;stroke-width:0.85320044" />
</svg>
