<svg height="512pt" viewBox="0 0 512 512" width="512pt" xmlns="http://www.w3.org/2000/svg"><g fill="#cfd8dc"><path d="m490.667969 405.332031h-469.335938c-11.773437 0-21.332031-9.535156-21.332031-21.332031s9.558594-21.332031 21.332031-21.332031h469.335938c11.773437 0 21.332031 9.535156 21.332031 21.332031s-9.558594 21.332031-21.332031 21.332031zm0 0"/><path d="m490.667969 149.332031h-469.335938c-11.773437 0-21.332031-9.535156-21.332031-21.332031s9.558594-21.332031 21.332031-21.332031h469.335938c11.773437 0 21.332031 9.535156 21.332031 21.332031s-9.558594 21.332031-21.332031 21.332031zm0 0"/><path d="m234.667969 21.332031h42.664062v112h-42.664062zm0 0"/><path d="m234.667969 378.667969h42.664062v112h-42.664062zm0 0"/></g><path d="m448 512h-384c-35.285156 0-64-28.714844-64-64v-384c0-35.285156 28.714844-64 64-64h384c35.285156 0 64 28.714844 64 64v384c0 35.285156-28.714844 64-64 64zm-384-469.332031c-11.753906 0-21.332031 9.554687-21.332031 21.332031v384c0 11.777344 9.578125 21.332031 21.332031 21.332031h384c11.753906 0 21.332031-9.554687 21.332031-21.332031v-384c0-11.777344-9.578125-21.332031-21.332031-21.332031zm0 0" fill="#607d8b"/><path d="m425.75 240.917969-58.667969-58.667969c-6.121093-6.101562-15.253906-8-23.253906-4.628906-7.957031 3.285156-13.160156 11.09375-13.160156 19.710937v37.335938h-149.335938v-37.335938c0-8.617187-5.203125-16.425781-13.160156-19.710937-8.023437-3.371094-17.152344-1.472656-23.253906 4.628906l-58.667969 58.667969c-8.339844 8.339843-8.339844 21.824219 0 30.164062l58.667969 58.667969c4.074219 4.074219 9.535156 6.25 15.082031 6.25 2.753906 0 5.523438-.511719 8.171875-1.621094 7.957031-3.285156 13.160156-11.09375 13.160156-19.710937v-37.335938h149.335938v37.335938c0 8.617187 5.203125 16.425781 13.160156 19.710937 2.648437 1.109375 5.417969 1.621094 8.171875 1.621094 5.546875 0 11.007812-2.175781 15.082031-6.25l58.667969-58.667969c8.339844-8.339843 8.339844-21.824219 0-30.164062zm0 0" fill="#2196f3"/></svg>